<svg id="ICONA_PROFESSIONALITÀ" data-name="ICONA PROFESSIONALITÀ" xmlns="http://www.w3.org/2000/svg" width="45.505" height="45.384" viewBox="0 0 45.505 45.384">
  <path id="Tracciato_3482" data-name="Tracciato 3482" d="M45.433,44.072,39.809,30.011a.955.955,0,0,0-.531-.531l-3.516-1.407a.954.954,0,0,0-.708,1.771L38.191,31.1,42.83,42.687,33.39,38.8l-1.28-4.478a.953.953,0,0,0-1.177-.654.952.952,0,0,0-.655,1.178l1.188,4.161-8.709,4.352-8.71-4.352,1.189-4.161a.953.953,0,0,0-1.832-.524L12.124,38.8,2.683,42.687,7.319,31.1l3.135-1.254a.953.953,0,1,0-.707-1.77L6.232,29.48a.951.951,0,0,0-.532.531L.072,44.071a.951.951,0,0,0,.515,1.24.961.961,0,0,0,.364.073.944.944,0,0,0,.368-.076l11.552-4.757,9.455,4.729a.96.96,0,0,0,.852,0l9.456-4.729,11.549,4.756a.956.956,0,0,0,.728.007.952.952,0,0,0,.522-1.242" transform="translate(0)" fill="#a60f21"/>
  <path id="Tracciato_3483" data-name="Tracciato 3483" d="M22.5,24.247v.038h.253a.942.942,0,0,0,.487-.136l7.031-4.218a.955.955,0,0,0,.463-.815V11.38a.954.954,0,0,0-.462-.814L23.246,6.343a.943.943,0,0,0-.981,0l-7.034,4.22a.951.951,0,0,0-.463.815v7.733a.955.955,0,0,0,.462.815l7.031,4.219a.949.949,0,0,0,.241.1M16.674,11.92l6.078-3.65,6.077,3.65v6.655l-6.077,3.65-6.078-3.65Z" transform="translate(0)" fill="#a60f21"/>
  <path id="Tracciato_3484" data-name="Tracciato 3484" d="M23.689,19.192h0v0l0,0c0-.027.015-.05.015-.077V16.138l3.054-1.827a.953.953,0,0,0-.981-1.635l-3.025,1.815-3.025-1.819a.953.953,0,1,0-.98,1.635L21.8,16.134v2.977a.946.946,0,0,0,1.889.081" transform="translate(0)" fill="#a60f21"/>
  <path id="Tracciato_3485" data-name="Tracciato 3485" d="M22.157,36.732a.942.942,0,0,0,.594.212.959.959,0,0,0,.6-.214A61.488,61.488,0,0,0,30.5,29.758c4.819-5.544,7.262-10.545,7.262-14.866A15.014,15.014,0,0,0,22.753,0h-.127A15.086,15.086,0,0,0,7.734,14.894c0,10.189,13.831,21.365,14.423,21.838m.4-34.945h.2A13.146,13.146,0,0,1,35.862,14.9c0,8.172-10.566,17.683-13.109,19.852C20.21,32.575,9.644,23.054,9.644,14.9A13.147,13.147,0,0,1,22.554,1.787" transform="translate(0)" fill="#a60f21"/>
</svg>
