<svg id="ICONA_PUNTUALITÀ" data-name="ICONA PUNTUALITÀ" xmlns="http://www.w3.org/2000/svg" width="43.074" height="43.06" viewBox="0 0 43.074 43.06">
  <path id="Tracciato_3470" data-name="Tracciato 3470" d="M24.855,35.727h-.022a10.753,10.753,0,0,1-4.206-.85,1.013,1.013,0,0,0-1.373,1.269,1.035,1.035,0,0,0,.577.59A12.921,12.921,0,1,0,24.843,11.91h0a1.01,1.01,0,0,0-.971,1.05,1.018,1.018,0,0,0,.985.972,10.9,10.9,0,0,1,0,21.8" transform="translate(0)" fill="#a60f21"/>
  <path id="Tracciato_3471" data-name="Tracciato 3471" d="M15.9,33.477a1.007,1.007,0,0,0,.33.7h0a1.008,1.008,0,0,0,.681.264h.047a1,1,0,0,0,.7-.33l5.958-6.553a3.011,3.011,0,1,0-1.453-1.409l-6,6.6a1,1,0,0,0-.262.73m8.95-9.623a.973.973,0,1,1-.974.973.974.974,0,0,1,.974-.973M16.47,33.918v0l-.225.245Z" transform="translate(0)" fill="#a60f21"/>
  <path id="Tracciato_3472" data-name="Tracciato 3472" d="M13.958,7.627h0a1.013,1.013,0,0,0-1.011-1.011H1.051a.989.989,0,0,0-.727.268A1.012,1.012,0,0,0,.269,8.314a1.038,1.038,0,0,0,.768.325H12.946a1.013,1.013,0,0,0,1.012-1.012" transform="translate(0)" fill="#a60f21"/>
  <path id="Tracciato_3473" data-name="Tracciato 3473" d="M11.311,12.92h0a1.013,1.013,0,0,0-1.01-1.011H4.994a1.011,1.011,0,0,0-.972,1.049,1.018,1.018,0,0,0,.985.973H10.3a1.012,1.012,0,0,0,1.011-1.012" transform="translate(0)" fill="#a60f21"/>
  <path id="Tracciato_3474" data-name="Tracciato 3474" d="M15.58,13.932h4a1.012,1.012,0,0,0-.014-2.022H15.58a1.011,1.011,0,0,0-.972,1.049,1.016,1.016,0,0,0,.972.973" transform="translate(0)" fill="#a60f21"/>
  <path id="Tracciato_3475" data-name="Tracciato 3475" d="M20.887,5.332h.648a.954.954,0,0,0,.727-.269,1.014,1.014,0,0,0,.056-1.429A1.02,1.02,0,0,0,21.9,3.36V2.335a.312.312,0,0,1,.311-.312H27.5a.313.313,0,0,1,.313.312v.973H26.195a1.012,1.012,0,0,0-.784,1.7,1.043,1.043,0,0,0,.77.325h2.643a1.013,1.013,0,0,0,1.012-1.012V2.334A2.34,2.34,0,0,0,27.5,0H22.209a2.339,2.339,0,0,0-2.334,2.335V4.32a1.013,1.013,0,0,0,1.012,1.012" transform="translate(0)" fill="#a60f21"/>
  <path id="Tracciato_3476" data-name="Tracciato 3476" d="M31.878,8.024a18.112,18.112,0,0,0-7.019-1.407H18.225a1.012,1.012,0,0,0,.013,2.023h6.617a16.175,16.175,0,0,1-.01,32.349h-.01a16.172,16.172,0,0,1-14.92-22.4,1.011,1.011,0,0,0-.544-1.322,1.012,1.012,0,0,0-1.324.543A18.217,18.217,0,1,0,31.878,8.024" transform="translate(0)" fill="#a60f21"/>
  <path id="Tracciato_3477" data-name="Tracciato 3477" d="M36.592,8.822h0l-.207.282a19.648,19.648,0,0,1,2.928,2.644,1.015,1.015,0,0,0,1.427.12,1,1,0,0,0,.355-.689,1.037,1.037,0,0,0-.273-.78,21.766,21.766,0,0,0-3.253-2.935,1.012,1.012,0,0,0-1.2,1.63Z" transform="translate(0)" fill="#a60f21"/>
</svg>
