<svg id="ICONA_FLESSIBILITÀ" data-name="ICONA FLESSIBILITÀ" xmlns="http://www.w3.org/2000/svg" width="45.479" height="52.651" viewBox="0 0 45.479 52.651">
  <path id="Tracciato_3459" data-name="Tracciato 3459" d="M45.392,36.551l-.155-.611a2.446,2.446,0,0,0-2.379-1.86h0a1.959,1.959,0,0,0-1.03.294l-1.422.879a2.91,2.91,0,0,0-1.726-1.612,2.6,2.6,0,0,0-1.725.014l-6.6,2.619L13.794,34.179a3.879,3.879,0,0,0-1.712.169L1.891,37.815a.85.85,0,0,0-.576,1.055.851.851,0,0,0,1.055.576l.062-.022,10.19-3.47a2.228,2.228,0,0,1,.955-.094l17.51,2.218a.627.627,0,0,1,.55.683l-.082.947a.822.822,0,0,1-.8.753l-9.074.155L18,40.486a.829.829,0,0,0-.61.228.851.851,0,0,0,.551,1.473l3.473.121,5.3,2.91a.858.858,0,0,0,.856-.021l15.158-9.379a.379.379,0,0,1,.136-.037.747.747,0,0,1,.73.574l.155.607A1.173,1.173,0,0,1,43.3,38.19L27.285,50.084a3.57,3.57,0,0,1-1.207.589l-.759.211a1.809,1.809,0,0,1-1.058-.025L8.391,45.594a3.74,3.74,0,0,0-2.836.207L.507,48.275a.846.846,0,0,0-.45.471.835.835,0,0,0,.017.649.85.85,0,0,0,1.123.433L6.31,47.32a2.04,2.04,0,0,1,1.548-.114l15.87,5.266a3.5,3.5,0,0,0,2.049.049l.755-.21a5.329,5.329,0,0,0,1.77-.863l16.017-11.9a2.861,2.861,0,0,0,1.073-3m-12.65.6,4.814-1.91a.868.868,0,0,1,.565,0,1.235,1.235,0,0,1,.789.934l-5.651,3.493.066-.764a2.334,2.334,0,0,0-.583-1.753M29.2,42.184l-2.1,1.3L24.86,42.257Z" transform="translate(0)" fill="#a60f21"/>
  <path id="Tracciato_3460" data-name="Tracciato 3460" d="M25.444,9.7V9.694c2.237,0,4.057-2.176,4.057-4.85S27.681,0,25.444,0s-4.056,2.176-4.056,4.85,1.82,4.85,4.056,4.85M23.088,4.85c0-1.737,1.057-3.15,2.356-3.15S27.8,3.113,27.8,4.85,26.744,8,25.444,8s-2.356-1.413-2.356-3.15" transform="translate(0)" fill="#a60f21"/>
  <path id="Tracciato_3461" data-name="Tracciato 3461" d="M20.847,23.767V32.4a.847.847,0,0,0,.292.64,3.627,3.627,0,0,0,4.3.452,3.111,3.111,0,0,0,1.746.531h.005a4.139,4.139,0,0,0,2.559-.98.856.856,0,0,0,.3-.643V23.767a5.866,5.866,0,0,0,3.3-5.276V16.144a5.907,5.907,0,0,0-5.89-5.89H23.436a5.9,5.9,0,0,0-5.89,5.89v2.347a5.869,5.869,0,0,0,3.3,5.276m8.346-9.255a.852.852,0,0,0-.851.851V31.968a1.819,1.819,0,0,1-2.045.022V23.179a.851.851,0,1,0-1.7,0V31.99a1.824,1.824,0,0,1-2.046-.022V15.363a.85.85,0,1,0-1.7,0v6.415a4.149,4.149,0,0,1-1.6-3.287l0-2.347a4.2,4.2,0,0,1,4.191-4.191h4.011a4.2,4.2,0,0,1,4.194,4.191v2.347a4.15,4.15,0,0,1-1.6,3.288V15.363a.852.852,0,0,0-.851-.851" transform="translate(0)" fill="#a60f21"/>
</svg>
