<svg id="ICONA_AFFIDABILITÀ" data-name="ICONA AFFIDABILITÀ" xmlns="http://www.w3.org/2000/svg" xmlns:xlink="http://www.w3.org/1999/xlink" width="44" height="45" viewBox="0 0 44 45">
  <defs>
    <clipPath id="clip-path">
      <rect id="Rettangolo_78" data-name="Rettangolo 78" width="44" height="45" fill="#a60f21"/>
    </clipPath>
  </defs>
  <g id="Raggruppa_2610" data-name="Raggruppa 2610" clip-path="url(#clip-path)">
    <path id="Tracciato_3457" data-name="Tracciato 3457" d="M41,19H40V16.333C40,8.624,32.516,0,22.5,0S5,8.624,5,16.333V19H3a3.12,3.12,0,0,0-3,3.222v5.556A3.12,3.12,0,0,0,3,31H7V16.333C7,9.7,13.771,2,22.5,2S38,9.7,38,16.333V24a1,1,0,0,0,2,0V21h1a1.129,1.129,0,0,1,1,1.222v5.556A1.129,1.129,0,0,1,41,29H40V27a1,1,0,0,0-2,0v3.182A10.822,10.822,0,0,1,27.806,40.968,3,3,0,0,0,25,39H22a3,3,0,0,0,0,6h3a2.994,2.994,0,0,0,2.826-2.033A12.816,12.816,0,0,0,39.959,31H41a3.12,3.12,0,0,0,3-3.222V22.222A3.12,3.12,0,0,0,41,19M5,29H3a1.129,1.129,0,0,1-1-1.222V22.222A1.129,1.129,0,0,1,3,21H5ZM22,43a1,1,0,0,1,0-2h3a.972.972,0,0,1,.5.154.966.966,0,0,0,0,1.692A.972.972,0,0,1,25,43Z" fill="#a60f21"/>
    <path id="Tracciato_3458" data-name="Tracciato 3458" d="M37,23c-6.887,0-20-8.967-20-15a1,1,0,0,0-2,0,8.077,8.077,0,0,0,.864,3.462C12.657,13.34,9,18.709,9,23v4a14.947,14.947,0,0,0,8.666,12.908,1,1,0,0,0,.823-1.823A13.044,13.044,0,0,1,11,27V23c0-3.445,3.255-8.3,5.861-9.813a27.3,27.3,0,0,0,6.409,6.251A32.312,32.312,0,0,0,34,24.608v2.385c-.024,3.186-1.611,7.586-4.6,9.829a1,1,0,0,0,1.2,1.6C34.109,35.788,35.973,30.686,36,27V24.93c.34.033.684.07,1,.07a1,1,0,0,0,0-2" fill="#a60f21"/>
  </g>
</svg>
